<svg xmlns="http://www.w3.org/2000/svg" viewBox="0 0 403.14 109.92"><defs><style>.cls-1{fill:#0072bb;}</style></defs><title>Asset 291</title><g id="Layer_2" data-name="Layer 2"><g id="Signs"><path class="cls-1" d="M73.63,106.9c-4.88,0-9.76-.06-14.63,0a2.14,2.14,0,0,1-2.5-1.85C54,96,51.29,87,48.74,77.94a1.77,1.77,0,0,0-2-1.55q-12.45.08-24.9,0a1.63,1.63,0,0,0-1.86,1.42c-2.61,9.17-5.29,18.32-7.88,27.5a1.85,1.85,0,0,1-2.15,1.61c-2.86-.07-5.73,0-8.6,0-1.4,0-1.51-.17-1.11-1.5q11.54-38.6,23.08-77.2c2.62-8.77,5.25-17.54,7.83-26.32A1.86,1.86,0,0,1,33.24.26q10.9.09,21.82,0a1.81,1.81,0,0,1,2,1.55Q65.66,29,74.3,56.13q7.8,24.65,15.59,49.3c.42,1.32.32,1.46-1.12,1.46ZM33.26,28.1c-.15.32-.2.39-.23.47q-5.51,19.51-11,39c-.3,1,.07,1.28,1,1.29,7,.06,14,.15,21,.22,1.52,0,1.54,0,1.1-1.49l-8.7-28.88C35.42,35.26,34.37,31.79,33.26,28.1Z"/><path class="cls-1" d="M292,47.22c1.24-1.06,2.19-2,3.25-2.76a26.8,26.8,0,0,1,14.42-5.14,25.46,25.46,0,0,1,15.74,3.55,18.1,18.1,0,0,1,8.44,12.62,35.46,35.46,0,0,1,.5,6.5q0,21.37,0,42.75c0,2,0,2-2,2h-22.2c-1.76,0-1.79,0-1.79-1.8q0-23.68,0-47.36A7.25,7.25,0,0,0,301.45,50a9.51,9.51,0,0,0-6.05,1.22A6.51,6.51,0,0,0,292,57.29q0,23.75,0,47.5c0,1.91,0,1.91-1.92,1.91H267.71c-1.68,0-1.74,0-1.74-1.72V41.69c0-1.7.1-1.79,1.84-1.79h22.46c1.61,0,1.69.08,1.69,1.64C292,43.33,292,45.12,292,47.22Z"/><path class="cls-1" d="M195.83,53.24v-51c0-2,0-2,2-2h22.6c1.69,0,1.71,0,1.71,1.74V104.72c0,1.72,0,1.74-1.71,1.74H197.55c-1.68,0-1.72,0-1.72-1.73Z"/><path class="cls-1" d="M178.71,68.13c0,6-.05,12,0,18a46.83,46.83,0,0,0,.75,8.68,6.12,6.12,0,0,0,5.3,5.18,22.56,22.56,0,0,0,2.91.46c.86,0,1.25.36,1.24,1.23,0,1.67,0,3.34,0,5,0,.68-.23,1.16-1,1.27-7.31,1-14.63,1.77-21.91-.06-7.09-1.77-11-6.53-12.31-13.58a37.68,37.68,0,0,1-.56-7q0-19.12,0-38.25c0-1.87,0-1.87-1.92-1.88s-3.93-.05-5.9,0c-1,0-1.49-.31-1.45-1.4.07-1.49.06-3,0-4.49,0-1.09.42-1.42,1.44-1.39,2,.05,4,0,6,.05,1.24,0,1.64-.38,1.64-1.61-.05-8,0-15.92,0-23.88,0-2.05,0-2.05,2.06-2.05h21.82c2,0,2,0,2,2V38.05c0,1.78,0,1.78,1.79,1.79,2.09,0,4.19,0,6.28,0,1.14,0,1.53.41,1.48,1.5a40.25,40.25,0,0,0,0,4.11c.08,1.26-.32,1.78-1.65,1.72-2-.1-4.11,0-6.16,0s-1.93,0-1.93,1.88V68.13Z"/><path class="cls-1" d="M381.18,74.82c-4.75,0-9.5,0-14.24,0-1.25,0-1.62.41-1.61,1.63.05,5,.16,9.93,0,14.88-.19,5.39,2.44,8.8,7.05,11,6.23,3,14.1,1,17.62-4.42a8.82,8.82,0,0,0,1.53-5c0-1.8,0-3.6,0-5.39,0-1,.29-1.49,1.38-1.47,2.61.06,5.22,0,7.83,0,.93,0,1.44.26,1.39,1.32-.23,5.64-1.4,10.95-5.35,15.28a19.92,19.92,0,0,1-10.63,5.85,50.61,50.61,0,0,1-26-.69c-9.84-3-16.17-9.55-18.8-19.46A53.24,53.24,0,0,1,342.4,57.2c3.05-9,9.5-14.44,18.65-16.68a45.37,45.37,0,0,1,22.09-.22c10.22,2.56,16.25,9.24,18.72,19.36,1.1,4.51,1.08,9.07,1,13.65,0,1.12-.57,1.31-1.54,1.33C394.61,74.81,387.9,74.8,381.18,74.82ZM365.35,57.74c0,2.91,0,5.81,0,8.72,0,1.06.36,1.42,1.41,1.41,3.85,0,7.69-.05,11.54,0,1.09,0,1.38-.4,1.38-1.43,0-5.47,0-10.94,0-16.41a5.7,5.7,0,0,0-4.08-5.88,8.57,8.57,0,0,0-7,.29,5.32,5.32,0,0,0-3.25,5.1C365.36,52.27,365.35,55,365.35,57.74Z"/><path class="cls-1" d="M120.43,52.73a25.92,25.92,0,0,1,4.86-7.21,20.35,20.35,0,0,1,12.86-5.72c1.21-.11,1.47.34,1.46,1.41,0,5.91,0,11.82,0,17.72,0,2.1,0,4.19,0,6.29,0,1.42-.14,1.51-1.49,1.11-3.31-1-6.67-1.35-9.94,0-5,2.07-7,6.32-7.53,11.36-.7,6.66,0,13.34,0,20q-.06,3.85,0,7.71c0,1.1-.39,1.52-1.5,1.52q-11.74,0-23.49,0c-1.52,0-1.47-.88-1.47-1.93V52.6c0-3.77,0-7.53,0-11.3,0-1.54.13-1.67,1.69-1.67,7.62,0,15.24,0,22.86,0,1.22,0,1.66.42,1.64,1.65,0,3.42,0,6.84,0,10.27C120.38,51.92,120.41,52.33,120.43,52.73Z"/><path class="cls-1" d="M258.05,73.27v31.3c0,1.88,0,1.89-1.82,1.89H232.75c-1.66,0-1.71,0-1.71-1.75q0-31.42,0-62.87c0-1.71,0-1.75,1.7-1.75h23.61c1.68,0,1.69,0,1.69,1.74Q258.06,57.55,258.05,73.27Z"/><path class="cls-1" d="M243.27,0c6.44,0,10.91,1.64,14.49,5.35A11.78,11.78,0,0,1,257,22.69a19,19,0,0,1-23.6,1c-7.28-5.48-7.16-15,.28-20.28A17.29,17.29,0,0,1,243.27,0Z"/><path class="cls-1" d="M389.49,7.46c7.68,0,13.67,6.25,13.65,14.18a13.79,13.79,0,1,1-27.57-.23A13.88,13.88,0,0,1,389.49,7.46Zm11.62,14a11.72,11.72,0,1,0-23.44,0,11.72,11.72,0,1,0,23.44,0Z"/><path class="cls-1" d="M384.3,21.43c0-2.14,0-4.28,0-6.42,0-1,.29-1.41,1.32-1.38,1.8.06,3.6,0,5.39,0,2.15.07,3.25,1.06,3.72,3.2a4.11,4.11,0,0,1-2,4.83c-1.08.5-.92.81-.27,1.58a26.53,26.53,0,0,1,3,5.22c.13.26.34.65,0,.77a1.87,1.87,0,0,1-1.94-.22,3.68,3.68,0,0,1-.6-1c-.78-1.38-1.52-2.78-2.33-4.14a3.25,3.25,0,0,0-3.78-1.44c-.64.17-.6.64-.61,1.11q0,2.31,0,4.62c0,.69-.18,1.16-1,1.14s-.88-.52-.88-1.13Zm4.51-1.07c.56,0,1.12,0,1.67,0,1.57-.1,2.28-.83,2.31-2.32a2.22,2.22,0,0,0-2.22-2.46c-.85-.08-1.71,0-2.56,0-1.82,0-1.82,0-1.82,1.85v.39C386.21,20.61,385.86,20.37,388.81,20.36Z"/></g></g></svg>