<svg xmlns="http://www.w3.org/2000/svg" viewBox="0 0 490.69 65.82"><title>Symbols (2)</title><g id="Layer_2" data-name="Layer 2"><g id="Signs"><g id="Symbols"><g id="image_logo" data-name="image/logo"><g id="Logo"><path id="Fill-1" d="M7.55,32.91c0,14.88,10.69,26,24.52,26,13,0,19.49-8,21.38-11.95h7.34C58.9,53,50.1,65.82,31.86,65.82,13.83,65.61,0,51.77,0,32.91S14,0,32.28,0s27,12.58,28.93,18.86H53.66A24,24,0,0,0,32.28,6.71c-14,.21-24.73,11.11-24.73,26.2"/><path id="Fill-4" d="M97.26,38.78,86.57,10.48,75.67,39H97.26Zm2.51,6.5H73.15L65.82,64.56H58.69L82.79,1.05h7.34l24.52,63.51h-7.54Z"/><polygon id="Fill-6" points="150.29 64.56 118.43 64.56 118.43 1.05 125.97 1.05 125.97 57.85 150.29 57.85 150.29 64.56"/><polygon id="Fill-8" points="170.83 64.56 163.7 64.56 140.23 1.05 147.98 1.05 167.48 54.29 186.76 1.05 194.31 1.05 170.83 64.56"/><polygon id="Fill-10" points="198.92 64.56 206.25 64.56 206.25 1.05 198.92 1.05 198.92 64.56"/><polygon id="Fill-12" points="223.86 13.41 223.86 64.56 216.94 64.56 216.94 1.05 223.86 1.05 259.28 52.4 259.28 1.05 266.2 1.05 266.2 64.56 259.7 64.56 223.86 13.41"/><polygon id="Fill-13" points="309.8 35.42 301.62 44.44 301.62 64.56 294.29 64.56 294.29 1.05 301.62 1.05 301.62 35 331.39 1.05 340.19 1.05 314.62 29.76 340.19 64.56 331.6 64.56 309.8 35.42"/><polygon id="Fill-14" points="376.03 64.56 344.38 64.56 344.38 1.05 351.72 1.05 351.72 57.85 376.03 57.85 376.03 64.56"/><polygon id="Fill-15" points="380.65 1.05 414.39 1.05 414.39 7.75 388.19 7.75 388.19 28.93 413.76 28.93 413.76 35.63 388.19 35.63 388.19 57.85 414.39 57.85 414.39 64.56 380.65 64.56 380.65 1.05"/><polygon id="Fill-16" points="423.62 64.56 430.95 64.56 430.95 1.05 423.62 1.05 423.62 64.56"/><polygon id="Fill-17" points="448.35 13.41 448.35 64.56 441.43 64.56 441.43 1.05 448.35 1.05 483.77 52.4 483.77 1.05 490.69 1.05 490.69 64.56 484.19 64.56 448.35 13.41"/></g></g></g></g></g></svg>