<?xml version="1.0" encoding="utf-8"?>
<!-- Generator: Adobe Illustrator 19.2.1, SVG Export Plug-In . SVG Version: 6.00 Build 0)  -->
<svg version="1.1" id="Layer_1" xmlns="http://www.w3.org/2000/svg" xmlns:xlink="http://www.w3.org/1999/xlink" x="0px" y="0px"
	 viewBox="0 0 537 158.3" style="enable-background:new 0 0 537 158.3;" xml:space="preserve">
<style type="text/css">
	.st0{fill:#231F20;}
</style>
<polygon class="st0" points="52.2,38.1 20.9,73.5 20.9,38.1 0,38.1 0,120.1 20.9,120.1 20.9,100 31.7,87.9 53.4,120.1 78.3,120.1 
	45.9,72.2 76.3,38.1 "/>
<rect x="90.1" y="38.1" class="st0" width="20.9" height="82"/>
<polygon class="st0" points="187.5,38.1 187.5,88.7 149.6,38.1 131.3,38.1 131.3,120.1 150.8,120.1 150.8,69.6 188.7,120.1 
	207,120.1 207,38.1 "/>
<g>
	<path class="st0" d="M302.2,78.5v31.9c-8.9,6.1-22.7,10.6-34.1,10.6c-24.8,0-43.8-17.9-43.8-42c0-23.7,19.3-41.6,45.1-41.6
		c12.2,0,25,4.7,33.5,12.2l-11.6,14.2c-5.9-5.5-14.2-8.9-21.9-8.9c-13.4,0-23.7,10.4-23.7,24.2c0,14,10.4,24.4,24.1,24.4
		c4.1,0,9.7-1.6,14.6-3.9V78.5H302.2z"/>
	<path class="st0" d="M344.4,80.6h13.8c9.1,0,14.4-4.5,14.4-13.2c0-8.5-5.3-12.8-14.4-12.8h-13.8V80.6z M359.2,38.1
		c20.9,0,32.9,10.3,32.9,28.6c0,19.1-12,30.4-32.9,30.4h-14.8v23.1h-20.9v-82H359.2z"/>
</g>
<polygon class="st0" points="430.2,38.1 388.8,120.1 411.4,120.1 452.8,38.1 "/>
<polygon class="st0" points="517.5,38.1 517.5,88.7 479.6,38.1 461.3,38.1 461.3,120.1 480.8,120.1 480.8,69.6 518.5,120.1 
	537,120.1 537,38.1 "/>
</svg>
