<svg xmlns="http://www.w3.org/2000/svg" viewBox="0 0 952.33 459.98"><title>wittner_svg</title><g id="Layer_2" data-name="Layer 2"><g id="Layer_1-2" data-name="Layer 1"><path d="M422,149.57c-9.19,1.43-17.7,2.86-26.24,4.06-3.95.55-8,.69-11.95,1-4.63.33-6.7-2.3-7.15-6.51-.77-7.27,2.31-13.25,8.42-16.32s13-4.56,19.75-6.25a88.84,88.84,0,0,1,13.83-2c6-.54,9.56-3.85,10.9-9.37,3.54-14.55,6.89-29.15,10.17-43.76,2.44-10.88,4.19-21.94,7.18-32.65,1.37-4.94,4.62-9.51,7.71-13.75,2.43-3.32,6.76-4.68,10.31-2.55,2.61,1.57,5.26,4.93,5.7,7.82a43.85,43.85,0,0,1-.67,14.83c-4.39,22.22-9.14,44.38-13.75,66.56-.4,1.93-.77,3.88-1.29,6.55,4.13-.65,7.84-1.17,11.52-1.81,16.9-3,33.79-6,50.71-8.88,3-.5,4.06-1.74,4.72-4.63,3.13-13.8,6.32-27.59,10-41.25,2-7.67,5.93-9.87,12.69-8.59,5.84,1.11,9.63,6.11,8.76,13.14C552,75.4,550,85.54,548.33,95.72c-.27,1.63-.63,3.25-1.1,5.69,7-.92,13.5-1.82,20-2.62Q623.08,92,678.91,85.32a31.77,31.77,0,0,1,10.39.38c4.12.89,7.34,3.37,7.28,8.24a9.58,9.58,0,0,1-8.11,9.33c-25.22,4.66-50.45,9.34-75.71,13.85q-34.18,6.09-68.46,11.78c-3.39.55-4.74,2-5.67,5.07-9,29.77-14.12,60.31-18.4,91-6,42.95-9.55,86.11-9.42,129.52a110.15,110.15,0,0,0,1.45,16.9c.69,4.41,3,5.34,6.07,2.21,3.93-3.95,8-8.33,10.19-13.33,5.61-13,10.38-26.29,15.16-39.59C555.75,287.11,560.91,252,566.76,217c1.62-9.7,3.26-19.39,5.07-29.05.48-2.58,1-5.6,2.59-7.43,2.12-2.39,5.15-4.81,8.14-5.37,4-.77,7.66,1.94,8.81,5.91a22.77,22.77,0,0,1,.62,10.68c-5.39,25.42-11.12,50.76-16.73,76.13a5.68,5.68,0,0,0,.17,3.48c4.17-7.9,8.07-16,12.59-23.66,8-13.62,16.11-27.22,24.79-40.42,5.14-7.83,12.86-13,21.84-15.92,12.65-4.1,22,.85,26,13.58,3.2,10.18,2.58,20.48.41,30.66-5.13,24.11-11.18,48-15.63,72.26-2.29,12.51-2.76,25.52-2.5,38.28.13,7,2.87,14.27,5.52,21,2.32,5.88,7.66,7.79,12.69,4.06,9.71-7.21,18.67-15.43,27.71-23.49.93-.82.6-3.42.35-5.13-3.37-22.76-6.57-45.54-5.39-68.66,1.25-24.53,5.6-48.39,17.2-70.29a67.69,67.69,0,0,1,13.82-18.09c11.2-10.22,27.4-8.83,37.56,2.42,11.48,12.7,15.91,28.26,17.3,44.86,3.35,40.32-11,74.09-38.43,102.94-4.13,4.35-8.57,8.41-12.47,13-1.21,1.4-1.51,4-1.46,6,0,1.73,1.11,3.46,1.86,5.12,6,13.2,16.23,15.76,26.29,5.54A188,188,0,0,0,766.88,339c17.9-26.39,32.59-54.58,45.16-83.89a8.2,8.2,0,0,0-.39-8.23c-9.31-16.65-10.91-34.45-6.25-52.73A40.78,40.78,0,0,1,812,180.88c4.58-6.34,11.13-9.67,19.15-8.13,7.85,1.51,12.17,7.19,14.55,14.36,3.08,9.31,1.95,18.81.47,28.22a112.12,112.12,0,0,1-3.4,14.58c-1,3.42,0,5.26,3,6.7,5,2.36,9.86,4.85,14.73,7.4,23.86,12.47,30.64,28.4,22.69,54.15-4.41,14.31-9.48,28.42-13.89,42.73a67.14,67.14,0,0,0-2.5,14.74,25.83,25.83,0,0,0,1.26,9.79c2.46,7.31,9.71,10.15,16,5.74,6.09-4.26,12.13-9,16.86-14.7,11.54-13.78,22.31-28.19,33.37-42.36,2.46-3.15,4.6-6.58,7.36-9.44,4.17-4.33,9.19-3.05,10.26,2.88a22.63,22.63,0,0,1-.86,11.64,91.14,91.14,0,0,1-8.5,15.75c-10.93,17.19-22.54,34-37.57,47.83a110.12,110.12,0,0,1-23.77,17.09c-14.66,7.53-27.35,2.1-33.45-13.28-5.72-14.42-5.54-29.47-2.47-44.32,2.31-11.21,6.09-22.12,9.14-33.18,2-7.22,3.66-14.53,5.79-21.7,1.81-6.08-.33-10.58-5.18-13.81-7.16-4.77-14.59-9.15-22.42-14-1.85,4-3.38,7.29-4.88,10.57-14.91,32.59-30.26,65-51.08,94.29a170.14,170.14,0,0,1-23.51,27.08c-17.28,15.8-36.13,12.84-49-6.76-3.28-5-5.85-10.42-9-16.19-3.54,3.31-6.89,6.9-10.71,9.92-5.72,4.53-11.37,9.4-17.76,12.78-11.86,6.26-24.22,3-32.56-7.5-6.89-8.72-9.31-19.06-10.31-29.8-1.94-21,1.2-41.6,5.62-62,3.59-16.59,8.32-32.94,11.87-49.55a68.34,68.34,0,0,0,1.28-20.71c-.84-8.49-7-10.92-13.29-5.18A107.9,107.9,0,0,0,613,235.33c-25.67,37.59-42.32,78.77-48.37,124-1.25,9.41-2.72,18.79-4,28.2a12.36,12.36,0,0,1-15.15,10.72c-4.4-.93-6.49-4.16-5.43-9.62,1.44-7.34,3.36-14.59,5.09-21.88a11.7,11.7,0,0,0,.4-5.58,34,34,0,0,1-1.87,4.11c-5,8-9.4,16.49-15.27,23.8-3.09,3.84-8.44,6.55-13.3,8.14q-11.61,3.8-15.24-7.81a121.66,121.66,0,0,1-5-23.86c-3.28-32.26-1.89-64.59-.67-96.91.16-4.38.4-8.76-.44-13.33-1.72,5.3-3.42,10.61-5.15,15.91-9.69,29.78-19.59,59.51-34.24,87.32-4.32,8.19-9.93,15.72-15.19,23.4a26.38,26.38,0,0,1-5.74,5.51c-8.48,6.57-17.6,5.27-23.82-3.53-6.4-9.05-8.77-19.66-8.72-30.31.07-18.62,1.15-37.26,2.34-55.86,1-15.46,2.8-30.86,4.14-46.3a36.76,36.76,0,0,0-.55-9.6c-.71,1.74-1.45,3.46-2.13,5.21-15,38.7-30.81,77-52.92,112.34a158,158,0,0,1-21.55,27.37c-12,12.11-28.56,10.49-39.71-2.68C282,374,279.14,361.76,277.78,349c-2-19.16,1.13-37.88,4.88-56.55,4.37-21.72,8.5-43.49,13.26-65.12a79.8,79.8,0,0,1,7.19-19c3.05-5.91,7.73-7.54,12.84-6.13,4.66,1.29,7.67,5.09,7,11.8a275.51,275.51,0,0,1-4.7,29.52c-5.55,27.08-11.81,54-16.92,81.16-1.63,8.7-1.22,18-.45,26.87.45,5.23,2.81,10.62,5.49,15.25,3.82,6.6,9.64,7.8,15.65,3.14,5.2-4,10.63-8.58,13.93-14.11,11-18.41,22.25-36.82,31.21-56.25,14-30.37,26.92-61.29,38.87-92.52,6.69-17.5,10.51-36.1,15.59-54.21A22.57,22.57,0,0,0,422,149.57ZM514.64,135a12.13,12.13,0,0,0-2.29-.57c-20.89,3.33-41.79,6.59-62.63,10.15-1.57.27-3.54,2.42-4,4.07-2,6.7-3.71,13.49-5.06,20.34-8.61,43.36-13.33,87.25-17,131.24-1.26,15.24-1.33,30.6-1.35,45.9,0,3.38,1.63,8.55,4.05,9.73,4.21,2.06,7.85-2.14,10.06-5.52,4.71-7.23,9.59-14.52,13-22.4,20.2-47.16,37.14-95.54,52.32-144.52C506.62,167.58,510.32,151.34,514.64,135ZM708.49,330.18a35.22,35.22,0,0,0,3.06-2.1c20.22-18.62,33.66-41.05,38-68.44,2.1-13.2,3-26.49-.77-39.6-1.92-6.6-5.31-12.2-11.77-15.37s-11.73-2.35-16,3.27a48.58,48.58,0,0,0-7.16,13c-7.84,22.26-10.3,45.41-9.42,68.81C704.93,302.94,707,316.06,708.49,330.18ZM827.1,192.94c-7.1.93-10.18,34.78-3.58,33.55C829.51,225.38,837,191.63,827.1,192.94Z"/><path d="M91.28,317.53c-2.2,6.57-4.33,13.15-6.59,19.69-7.16,20.63-14.58,41.19-26,59.9A97.57,97.57,0,0,1,44,416c-12.64,12.32-27.79,9.12-35.14-7C3,396.12,2.48,382.19,1.68,368.39-1.27,316.89,0,265.41,2.75,214,5.36,164.38,8.69,114.82,12,65.27c.37-5.55,2.08-11.1,3.8-16.45,1.15-3.55,3.69-6.53,8.12-6.14,4.76.42,8.57,2.86,9.38,7.62a81.82,81.82,0,0,1,1.29,17.86C33.72,84,32.3,99.74,31.13,115.53c-4.93,66.32-9.8,132.66-10,199.19-.05,19.94,2.08,39.89,3.41,59.82a27.59,27.59,0,0,0,2.45,8.6c2.16,5.13,6,6.48,10.33,2.93,4-3.34,8.19-7.24,10.52-11.79C54.65,361,61.58,347.57,66.6,333.54c17.62-49.25,26.5-100.39,31.23-152.33.58-6.3.9-12.68,2.23-18.83,1.76-8.16,6.73-11.28,14-10.14,4.18.66,6.74,3,7.28,7a61.82,61.82,0,0,1,.65,11.44c-2.23,43.44-5,86.85-6.74,130.31-1.06,26.66-.19,53.36,6.41,79.48,2.66,10.56,6.45,20.67,13,29.55,7.5,10.19,17.34,16.23,30.1,17.58,6.83.73,13-.81,17.28-5.86,5.86-6.94,11.66-14.21,15.91-22.18,12.81-24,20.13-50,26.25-76.32C239.14,259,246.57,194,243.6,127.9c-1-22.85-3.78-45.5-10.82-67.41C229.08,49,224,38.25,215.85,29.05c-5.73-6.52-8.23-14.08-5.22-22.7,1.93-5.54,6.14-7.9,11.36-5.28a38.79,38.79,0,0,1,11.67,9c10.93,12.62,16.76,27.88,21,43.76,8.32,31,10.4,62.75,10.07,94.66a880.54,880.54,0,0,1-32.95,230.4c-5.25,18.66-12.07,36.73-23.2,52.82a97.5,97.5,0,0,1-11.11,13.46c-19.49,19.53-44.89,19.74-65.09.78-11.34-10.63-18.52-23.9-23.91-38.21-10.51-27.91-14.76-57-15.87-86.63,0-1.1,0-2.2,0-3.3Z"/><path d="M322.88,132.62c3.44-6.8,9.5-9.42,14.61-7.87,7.2,2.18,13.23,9.81,12.7,16.66a61.15,61.15,0,0,1-6.27,23.44c-2.34,6.67-8.35,8.87-14.92,8.61-6.32-.25-9-5.15-10.82-10.33a28.56,28.56,0,0,1-1.57-9.72C316.61,147.77,319.63,139,322.88,132.62Z"/></g></g></svg>